<svg xmlns="http://www.w3.org/2000/svg" width="120px" height="31px" viewBox="0 0 495 120"><defs><style>.cls-1{fill:#faad1b;}.cls-1,.cls-2,.cls-3,.cls-4,.cls-5,.cls-6{fill-rule:evenodd;}.cls-2{fill:#f78f2d;}.cls-3{fill:#8dd9ff;}.cls-4{fill:#65bff0;}.cls-5{fill:#fe5500;}.cls-6{fill:#00a2eb;}</style></defs><title>LOGO</title><g id="Layer_2" data-name="Layer 2"><g id="Layer_1-2" data-name="Layer 1"><polygon class="cls-1" points="103 0 34.23 0 56.39 38.45 125.16 38.45 103 0"/><polygon class="cls-2" points="34.23 0 35.04 0 71.24 38.45 56.4 38.45 34.23 0"/><polygon class="cls-3" points="35.1 119.3 103.87 119.3 81.71 80.84 12.94 80.84 35.1 119.3"/><polygon class="cls-4" points="103.87 119.29 103.05 119.3 66.86 80.85 81.69 80.85 103.87 119.29"/><polygon class="cls-5" points="34.23 0 17.16 29.56 0 59.28 68.46 59.28 34.23 0"/><polygon class="cls-6" points="103.87 119.29 138.1 60.01 69.64 60.01 103.87 119.29"/> <path d="M199.108,37.677 C192.467,37.677 183.896,39.53 183.896,47.483 C183.896,53.893 190.923,55.515 199.262,56.981 C209.995,58.834 220.729,61.229 220.729,72.735 C220.729,84.934 208.914,88.178 199.108,88.178 C190.073,88.178 182.043,85.244 176.56,76.518 L180.886,73.506 C185.209,80.147 192.544,83.004 199.108,83.004 C205.749,83.004 215.247,81.305 215.247,72.657 C215.247,65.321 207.139,63.468 198.722,62 C188.53,60.148 178.491,58.062 178.491,47.483 C178.259,36.055 189.996,32.581 199.031,32.581 C206.367,32.581 213.625,34.743 218.643,41.615 L214.629,44.549 C211.154,39.762 204.745,37.677 199.108,37.677" id="Fill-9" fill="#ffffff"></path><path d="M274.415,69.955 L260.901,39.222 L247.387,69.955 L274.415,69.955 L274.415,69.955 Z M245.225,74.896 L239.665,87.406 L233.951,87.406 L258.198,33.352 L263.603,33.352 L287.849,87.406 L282.137,87.406 L276.577,74.896 L245.225,74.896 L245.225,74.896 Z" id="Fill-10" fill="#ffffff"></path><polyline id="Fill-11" fill="#ffffff" points="292.825 38.449 292.825 33.352 336.376 33.352 336.376 38.449 317.303 38.449 317.303 87.406 311.897 87.406 311.897 38.449 292.825 38.449"></polyline><path d="M375.221,83.004 C389.892,83.004 397.151,71.961 397.151,60.379 C397.151,48.411 389.97,37.445 375.221,37.677 C360.704,37.445 352.982,47.792 353.215,60.379 C353.445,72.117 360.395,83.004 375.221,83.004 L375.221,83.004 Z M402.556,60.379 C402.556,74.509 393.445,88.178 375.221,88.178 C356.844,88.178 347.809,74.433 347.809,60.301 C347.809,45.167 357.693,32.889 375.221,32.581 C393.521,32.581 402.556,46.094 402.556,60.379 L402.556,60.379 Z" id="Fill-12" fill="#ffffff"></path><path d="M427.968,62.387 L446.5,62.387 C455.148,62.387 459.317,57.29 459.317,50.495 C459.317,43.7 455.148,38.449 446.808,38.449 L427.968,38.449 L427.968,62.387 L427.968,62.387 Z M459.858,87.406 L441.943,67.483 L427.968,67.483 L427.968,87.406 L422.561,87.406 L422.561,33.352 L446.808,33.352 C458.777,33.352 464.723,41.384 464.723,50.495 C464.723,58.913 459.935,66.479 448.43,67.097 L466.886,87.406 L459.858,87.406 L459.858,87.406 Z" id="Fill-13" fill="#ffffff"></path><polygon id="Fill-14" fill="#ffffff" points="488.821 87.405 494.226 87.405 494.226 33.352 488.821 33.352"></polygon></g></g></svg>
