<svg xmlns="http://www.w3.org/2000/svg" width="49" height="40" viewBox="0 0 49 40">
    <g fill="#ffffff" fill-rule="nonzero" stroke="#ffffff" stroke-width="1">
        <path d="M29.584 38.995H3.819c-1.33 0-2.41-1.091-2.41-2.437v-2.949c-.216-5.777 3.032-11.117 8.228-13.525a10.721 10.721 0 0 1-3.224-7.53 10.728 10.728 0 0 1 3.019-7.617c.35-.392.756-.729 1.204-.999 8.01-4.874 16.31.926 16.31 8.603a10.464 10.464 0 0 1-3.204 7.543c5.196 2.408 8.444 7.748 8.227 13.525v2.949c0 1.337-1.064 2.424-2.385 2.437zM5.625 37.167h24.561V33.61c0-5.836-2.927-10.272-8.07-12.185a10.317 10.317 0 0 1-10.841 0c-5.132 1.962-8.07 6.41-8.07 12.185v1.121c0 .649.255 1.27.71 1.728.454.457 1.07.713 1.71.71zm6.216-17.62h.084a8.507 8.507 0 0 0 9.564 0h.085a8.785 8.785 0 0 0 3.579-6.428c.2-2.57-.73-5.1-2.543-6.914a3.804 3.804 0 0 0-.808-.67c-6.637-4.131-13.575.633-13.575 7.006a8.559 8.559 0 0 0 3.614 7.007zM40.764 15a.602.602 0 0 1-.601-.603V8.326H34.6a.602.602 0 0 1 0-1.207h5.61V1.603a.602.602 0 1 1 1.202 0v5.508h5.986a.602.602 0 0 1 0 1.207h-6.034v6.079c0 .333-.27.603-.601.603z"/>
    </g>
</svg>
